<svg id="Layer_2" data-name="Layer 2" xmlns="http://www.w3.org/2000/svg" viewBox="0 0 351.85 72.83"><defs><style>.cls-1,.cls-3{fill:#fff;}.cls-2{fill:#ed473d;}.cls-3{font-size:66.24px;font-family:Montserrat-Bold, Montserrat;font-weight:700;}.cls-4{letter-spacing:-0.02em;}.cls-5{letter-spacing:0em;}</style></defs><title>blue</title><path class="cls-1" d="M91.33,23.65h0A24.67,24.67,0,0,0,66.65,48.33h0A24.67,24.67,0,0,0,91.33,73H116V48.33A24.67,24.67,0,0,0,91.33,23.65Zm0,41.68a17,17,0,1,1,17-17A17,17,0,0,1,91.33,65.34Z" transform="translate(-66.65 -16.43)"/><path class="cls-2" d="M98.28,44.85a7,7,0,1,0-13.91,0s0,.1,0,.3a7,7,0,0,0,.16,1.23c.42,2.18,1.86,6.56,6.79,12.39,4.93-5.82,6.37-10.21,6.79-12.39a7,7,0,0,0,.16-1.23C98.29,45,98.28,44.85,98.28,44.85Zm-7,4.35a4.35,4.35,0,1,1,4.35-4.35A4.35,4.35,0,0,1,91.33,49.2Z" transform="translate(-66.65 -16.43)"/><text class="cls-3" transform="translate(60.59 56.27)">City<tspan class="cls-4" x="136.06" y="0">C</tspan><tspan class="cls-5" x="183.16" y="0">om</tspan></text></svg>