<svg id="Layer_1" data-name="Layer 1" xmlns="http://www.w3.org/2000/svg" viewBox="0 0 443.08 91.72"><defs><style>.cls-1,.cls-3{fill:#1e3461;}.cls-2{fill:#ed473d;}.cls-3{font-size:83.42px;font-family:Montserrat-Bold, Montserrat;font-weight:700;}.cls-4{letter-spacing:-0.02em;}</style></defs><title>header</title><path class="cls-1" d="M45.93,17.86h0A31.07,31.07,0,0,0,14.86,48.93h0A31.07,31.07,0,0,0,45.93,80H77V48.93A31.07,31.07,0,0,0,45.93,17.86Zm0,52.49A21.42,21.42,0,1,1,67.35,48.93,21.42,21.42,0,0,1,45.93,70.35Z" transform="translate(-14.86 -8.76)"/><path class="cls-2" d="M54.69,44.55a8.76,8.76,0,0,0-17.52,0s0,.13,0,.37a8.76,8.76,0,0,0,.2,1.54c.53,2.74,2.34,8.27,8.55,15.6,6.21-7.34,8-12.86,8.55-15.6a8.76,8.76,0,0,0,.2-1.54C54.69,44.68,54.69,44.55,54.69,44.55ZM45.93,50a5.47,5.47,0,1,1,5.47-5.47A5.47,5.47,0,0,1,45.93,50Z" transform="translate(-14.86 -8.76)"/><text class="cls-3" transform="translate(76.3 70.86)">City<tspan class="cls-4" x="171.33" y="0">C</tspan><tspan x="230.64" y="0">om</tspan></text></svg>